<svg width="30" height="28" viewBox="0 0 30 28" fill="none" xmlns="http://www.w3.org/2000/svg">
<g clip-path="url(#clip0_1_564)">
<path d="M23.887 2.08047H10.1246V7.40717H26.8263V4.82275C26.8263 3.31052 25.5077 2.08047 23.887 2.08047Z" fill="#CED9F9"/>
<path d="M16.0966 8.22684H0V3.28424C0 1.47314 1.57906 0 3.5202 0H8.66684C9.17839 0 9.67117 0.100616 10.1189 0.289673C10.7442 0.552643 11.2814 0.986084 11.6581 1.5524L16.0966 8.22684Z" fill="#1640C1"/>
<path d="M30 9.3334V25.2543C30 26.7685 28.6794 28 27.0564 28H2.94365C1.32065 28 0 26.7685 0 25.2543V6.58707H27.0564C28.6794 6.58707 30 7.81903 30 9.3334Z" fill="#2354E6"/>
<path d="M30 9.3334V25.2543C30 26.7685 28.6794 28 27.0564 28H15V6.58707H27.0564C28.6794 6.58707 30 7.81903 30 9.3334Z" fill="#1849D6"/>
<path d="M22.8914 17.2932C22.8914 21.3548 19.3513 24.6591 15 24.6591C10.6487 24.6591 7.10861 21.3548 7.10861 17.2932C7.10861 13.2322 10.6487 9.92792 15 9.92792C19.3513 9.92792 22.8914 13.2322 22.8914 17.2932Z" fill="#E7ECFC"/>
<path d="M22.8914 17.2932C22.8914 21.3548 19.3513 24.6591 15 24.6591V9.92792C19.3513 9.92792 22.8914 13.2322 22.8914 17.2932Z" fill="#CED9F9"/>
<path d="M17.5436 17.3836C17.379 17.5137 17.1774 17.5771 16.9775 17.5771C16.7274 17.5771 16.4788 17.4782 16.3049 17.2855L15.8789 16.8143V19.8996C15.8789 20.3525 15.4852 20.7199 15 20.7199C14.5148 20.7199 14.1211 20.3525 14.1211 19.8996V16.8143L13.6952 17.2855C13.3816 17.6318 12.8275 17.676 12.4564 17.3836C12.0857 17.0916 12.0381 16.5742 12.3509 16.2279L14.0907 14.3029C14.3175 14.0526 14.6484 13.9086 15 13.9086C15.3516 13.9086 15.6825 14.0526 15.9094 14.3029L17.6491 16.2279C17.962 16.5742 17.9144 17.0916 17.5436 17.3836Z" fill="#6C8DEF"/>
<path d="M17.5436 17.3836C17.379 17.5137 17.1774 17.5771 16.9775 17.5771C16.7274 17.5771 16.4788 17.4782 16.3049 17.2855L15.8789 16.8143V19.8996C15.8789 20.3525 15.4852 20.7199 15 20.7199V13.9086C15.3516 13.9086 15.6825 14.0526 15.9093 14.3029L17.6491 16.2279C17.962 16.5742 17.9144 17.0916 17.5436 17.3836Z" fill="#3B67E9"/>
</g>
<defs>
<clipPath id="clip0_1_564">
<rect width="30" height="28" fill="white"/>
</clipPath>
</defs>
</svg>
